<svg width="68" height="68" viewBox="0 0 68 68" fill="none" xmlns="http://www.w3.org/2000/svg">
<path d="M64.2595 3.74053C61.7646 1.24571 58.7627 0 55.2502 0H12.7498C9.2373 0 6.23535 1.24571 3.74053 3.74053C1.24571 6.23535 0 9.2373 0 12.7498V55.2502C0 58.7627 1.24571 61.7646 3.74053 64.2595C6.23535 66.7543 9.2373 68 12.7498 68H22.6678C23.3145 68 23.8012 67.9762 24.1279 67.9319C24.5081 67.8557 24.8512 67.653 25.1014 67.3567C25.4247 67.0164 25.5881 66.5228 25.5881 65.8762L25.5642 62.864C25.5506 60.9444 25.5438 59.4264 25.5438 58.3032L24.5227 58.4802C23.8761 58.5993 23.0592 58.6504 22.0688 58.6368C21.0364 58.6177 20.0074 58.5141 18.9919 58.327C17.911 58.1275 16.8934 57.6723 16.024 56.9996C15.1135 56.3109 14.4345 55.3611 14.0772 54.2768L13.6347 53.2557C13.2618 52.4503 12.7933 51.6926 12.2393 50.9991C11.6062 50.1721 10.9629 49.6139 10.3128 49.3178L10.0065 49.0966C9.79291 48.9436 9.59863 48.7653 9.4279 48.5656C9.26484 48.3803 9.1306 48.1714 9.02968 47.9461C8.94119 47.7385 9.01607 47.5683 9.25091 47.4356C9.48916 47.2995 9.91461 47.2348 10.5375 47.2348L11.4224 47.3709C12.0112 47.4867 12.743 47.8406 13.6109 48.4295C14.4892 49.0283 15.2229 49.8154 15.7585 50.7337C16.4393 51.9419 17.2561 52.8643 18.2159 53.5008C19.1757 54.1338 20.1424 54.4538 21.1158 54.4538C22.0892 54.4538 22.9299 54.3789 23.6412 54.2325C24.3291 54.0903 24.9976 53.8663 25.6323 53.5654C25.8978 51.5914 26.6194 50.0666 27.8004 49.0047C26.2701 48.8546 24.7534 48.5884 23.2634 48.2082C21.8094 47.8088 20.411 47.2291 19.1009 46.4826C17.73 45.7363 16.5193 44.7279 15.5373 43.5147C14.5945 42.3337 13.8185 40.785 13.2127 38.8688C12.6102 36.9492 12.3073 34.7335 12.3073 32.225C12.3073 28.6547 13.4713 25.6153 15.8028 23.1035C14.7136 20.4214 14.8158 17.4093 16.1125 14.0772C16.9702 13.8083 18.2398 14.0091 19.9211 14.6728C21.6025 15.3365 22.8346 15.9049 23.6174 16.3746C24.4002 16.8511 25.0265 17.2493 25.4996 17.5727C28.2666 16.8026 31.1261 16.4155 33.9983 16.4222C36.922 16.4222 39.7537 16.8068 42.5004 17.5727L44.1818 16.5107C45.4751 15.7342 46.8393 15.0823 48.2559 14.5639C49.8215 13.9717 51.0128 13.8117 51.8432 14.0772C53.1706 17.4127 53.2863 20.4214 52.1938 23.1069C54.5252 25.6153 55.6927 28.6547 55.6927 32.2284C55.6927 34.7369 55.3898 36.9594 54.7839 38.8892C54.1815 40.8225 53.3987 42.3711 52.4389 43.5385C51.4396 44.7362 50.2238 45.7349 48.8549 46.4826C47.4254 47.279 46.0367 47.8542 44.6923 48.2082C43.2025 48.5896 41.6858 48.857 40.1554 49.0081C41.687 50.3355 42.4562 52.4287 42.4562 55.2911V65.8762C42.4562 66.3765 42.5277 66.7815 42.6774 67.0912C42.7462 67.2405 42.8444 67.3743 42.966 67.4848C43.0876 67.5953 43.2302 67.6802 43.3854 67.7345C43.7121 67.8502 43.998 67.9251 44.2499 67.9523C44.5017 67.9864 44.8625 67.9966 45.3322 67.9966H55.2502C58.7627 67.9966 61.7646 66.7509 64.2595 64.2561C66.7509 61.7646 68 58.7593 68 55.2468V12.7498C68 9.2373 66.7543 6.23535 64.2595 3.74053Z" fill="#1E1E1E"/>
</svg>
