<svg width="172" height="34" viewBox="0 0 172 34" fill="none" xmlns="http://www.w3.org/2000/svg">
<path d="M13.2779 23.7928C13.4326 23.9472 13.6957 24.2252 14.0671 24.627C14.4386 24.9977 14.8409 25.1831 15.2742 25.1831C15.8004 25.1831 16.2182 24.9514 16.5277 24.4879C16.7753 24.0862 17.0384 23.7928 17.317 23.6074C17.3479 23.5764 17.3944 23.5457 17.4563 23.5147C17.9205 23.2056 18.6479 23.0513 19.6383 23.0513C20.3192 23.0513 20.768 23.592 20.9847 24.6733C21.0156 24.8277 21.1704 25.2912 21.4489 26.0637C22.1917 28.1028 22.5632 29.3851 22.5632 29.9103C22.5632 30.1884 22.1298 30.4201 21.2632 30.6055C21.2013 30.6365 21.1549 30.6518 21.1239 30.6518C21.062 30.6518 20.9537 30.6672 20.799 30.6982C19.9633 30.8835 19.5454 31.2853 19.5454 31.9031C19.5454 32.5519 19.9787 32.8764 20.8454 32.8764C21.062 32.8764 21.6965 32.861 22.7489 32.83C24.0178 32.7683 24.9618 32.7373 25.5809 32.7373C26.2308 32.7373 27.1284 32.83 28.2736 33.0154C28.8925 33.1081 29.326 33.1544 29.5735 33.1544L30.3628 33.2008C31.7245 33.2625 32.7769 33.2471 33.5197 33.1544C33.9222 33.0927 34.1233 32.8147 34.1233 32.3202C34.1233 31.517 33.659 31.0072 32.7305 30.7908C32.5137 30.7291 32.1116 30.6365 31.5234 30.5128C30.6567 30.3584 30.0688 30.142 29.7592 29.8639C29.2021 29.4005 28.7689 28.489 28.4593 27.1296C28.3354 26.6352 27.9331 25.5692 27.2522 23.9318C26.8498 22.8812 26.5558 22.0934 26.3701 21.5682C26.2463 21.2285 25.9523 20.595 25.488 19.6681C25.0856 18.8956 24.8226 18.3241 24.6988 17.9533C24.5749 17.6753 24.3892 17.1037 24.1416 16.2386C23.925 15.4971 23.7548 14.9564 23.631 14.6165C23.6 14.462 23.4607 14.2457 23.2131 13.9677C22.9036 13.5351 22.687 13.1644 22.5632 12.8554C22.4084 12.4537 22.2227 11.9131 22.006 11.2333C21.7584 10.3373 21.4799 9.50313 21.1704 8.73071C20.8918 8.08188 20.5049 6.92326 20.0097 5.25484C19.8859 4.85318 19.8085 4.60602 19.7776 4.51333C19.7466 4.45154 19.6847 4.31251 19.5919 4.09622C19.1895 3.29292 18.9264 2.69044 18.8026 2.28878C18.7098 1.9798 18.6633 1.77898 18.6633 1.68629C18.6633 1.62451 18.6633 1.51635 18.6633 1.36188C18.6633 1.11472 18.4931 0.913869 18.1527 0.759396C17.8741 0.666706 17.5646 0.620361 17.2241 0.620361C16.698 0.620361 16.2801 0.774835 15.9706 1.08381C15.9397 1.11472 15.8623 1.20741 15.7385 1.36188C15.5837 1.54726 15.4599 1.68629 15.3671 1.77898C15.2742 1.87167 15.0885 2.02614 14.81 2.24243C14.4695 2.5205 14.2219 2.82947 14.0671 3.16933C13.9743 3.41649 13.866 4.00353 13.7422 4.93043C13.6803 5.45566 13.6184 5.81098 13.5565 5.99636C13.5255 6.11996 13.4017 6.38256 13.1851 6.78422C13.0612 6.9387 12.9839 7.06229 12.9529 7.15498C12.4268 8.42173 12.0708 9.25594 11.8851 9.6576C11.5447 10.4609 10.9721 11.8049 10.1673 13.6896C9.67212 14.8637 9.28525 15.7751 9.00669 16.4239C8.9448 16.5784 8.86741 16.9183 8.77456 17.4435C8.71267 17.8452 8.65074 18.1233 8.58885 18.2777C8.43411 18.6485 8.21744 18.9729 7.93889 19.251C7.84603 19.3437 7.75318 19.4981 7.66033 19.7144C7.62937 19.7454 7.6139 19.7761 7.6139 19.8071C7.14964 20.9194 6.60799 22.4178 5.98898 24.3026C5.67947 25.1985 5.46283 25.7702 5.33902 26.0173C5.24616 26.2337 5.10689 26.5271 4.92118 26.8979C4.82833 27.0833 4.68905 27.423 4.50334 27.9175C3.97719 29.2461 3.06413 30.0493 1.7642 30.3274C0.588066 30.5745 0 31.0072 0 31.6251C0 32.0268 0.278557 32.3976 0.835672 32.7373C0.959476 32.799 1.39279 32.8147 2.13561 32.7837C2.69272 32.7837 3.14152 32.7837 3.48197 32.7837C3.76052 32.7837 4.16289 32.861 4.68905 33.0154C5.12235 33.1698 5.4783 33.2471 5.75685 33.2471C8.23291 33.2471 9.65666 33.0617 10.0281 32.691C10.1828 32.5366 10.2602 32.2892 10.2602 31.9495C10.2602 31.2696 9.71855 30.8682 8.63528 30.7445C8.48053 30.7135 8.35672 30.6982 8.26387 30.6982C7.4282 30.5438 7.16511 30.0493 7.47462 29.2151C7.59844 28.8754 7.72222 28.489 7.84603 28.0565C7.90793 27.8711 7.95435 27.7321 7.98531 27.6394C8.07816 27.3613 8.2484 26.9132 8.496 26.2954C8.77456 25.5849 8.97573 25.0594 9.09954 24.7197C9.1305 24.658 9.19239 24.4726 9.28525 24.1635C9.5638 23.2676 9.98164 22.8195 10.5388 22.8195C11.7149 22.8195 12.6279 23.1439 13.2779 23.7928ZM12.0244 20.2706C11.3435 20.2706 11.003 20.0852 11.003 19.7144C11.003 19.5907 11.0649 19.4517 11.1887 19.2973C11.3435 19.1119 11.4827 18.8649 11.6066 18.5558C11.6994 18.2777 11.8077 17.8761 11.9315 17.3508C11.9934 16.9492 12.0863 16.6248 12.2101 16.3776C12.272 16.2231 12.3958 15.9451 12.5815 15.5434C13.0148 14.5856 13.3243 13.8286 13.51 13.2725C13.6957 12.7781 13.9124 12.1602 14.16 11.4187C14.3457 10.8008 14.5314 10.2446 14.7171 9.75029C14.7171 9.71939 14.7326 9.67304 14.7635 9.61126C14.8564 9.30228 15.0266 9.14781 15.2742 9.14781C15.5218 9.14781 15.7385 9.34863 15.9242 9.75029C16.2646 10.3991 16.5742 11.0634 16.8527 11.7431C17.0384 12.1757 17.1932 12.8245 17.317 13.6896C17.3789 14.0913 17.4253 14.3848 17.4563 14.5702C17.4872 14.7555 17.5801 14.9409 17.7348 15.1263C17.9515 15.3735 18.1217 15.6979 18.2455 16.0995C18.2765 16.1922 18.3074 16.393 18.3384 16.702C18.4622 17.5671 18.6015 18.2623 18.7562 18.7875C18.8181 18.9729 18.9729 19.2663 19.2205 19.6681C19.4062 19.9462 19.499 20.1469 19.499 20.2706C19.499 20.5176 19.1431 20.6413 18.4312 20.6413C18.0908 20.6413 17.6884 20.3943 17.2241 19.8998C17.0075 19.6527 16.8218 19.4517 16.667 19.2973C16.3575 19.0193 15.9242 18.8802 15.3671 18.8802C15.1195 18.8802 14.7171 19.0966 14.16 19.5291C13.4791 20.0235 12.7672 20.2706 12.0244 20.2706ZM52.4863 32.6446C52.641 32.6446 52.9352 32.6293 53.3684 32.5983C53.8945 32.5673 54.2351 32.4903 54.3898 32.3666C54.6683 32.1502 54.8694 31.5014 54.9933 30.4201C54.9933 30.2037 55.1016 29.833 55.3183 29.3078C55.504 28.9061 55.5969 28.5816 55.5969 28.3346C55.5969 27.7474 55.4112 27.454 55.0397 27.454C54.823 27.454 54.5909 27.4077 54.3434 27.315C54.1887 27.2533 54.0494 27.2223 53.9255 27.2223C53.4613 27.2223 53.0434 27.5157 52.672 28.1028C52.3317 28.659 51.6196 29.3542 50.5364 30.1884C49.8246 30.7135 48.989 31.0072 48.0294 31.0689C47.6269 31.0999 47.0391 31.0999 46.2652 31.0689C45.8627 31.0689 45.5688 31.0689 45.3831 31.0689C44.6403 31.0689 44.2689 30.8525 44.2689 30.4201C44.2689 30.111 44.4081 29.8176 44.6867 29.5395C45.7699 28.4583 46.652 27.346 47.333 26.2027C47.3948 26.11 47.5033 26.0327 47.658 25.971C47.8747 25.9093 48.014 25.8166 48.0758 25.6929C48.2615 25.3531 48.4162 24.9204 48.5401 24.3953C48.6329 23.9318 48.7568 23.5457 48.9115 23.2366C49.0661 22.9276 49.4068 22.4488 49.9329 21.7999C50.1804 21.4909 50.3661 21.2438 50.49 21.0584C50.8924 20.4713 51.5114 19.56 52.347 18.3241C53.0588 17.3354 53.6159 16.5475 54.0184 15.9605C54.0494 15.8987 54.1266 15.8215 54.2505 15.7288C54.3744 15.6052 54.4516 15.5125 54.4826 15.4507C54.6065 15.2035 54.6683 14.9409 54.6683 14.6628C54.6683 14.3848 54.4362 14.184 53.9719 14.0604C52.7338 13.6587 51.4496 13.4579 50.1186 13.4579C49.6543 13.4579 49.2983 13.4733 49.0508 13.5042C48.8651 13.5351 48.5555 13.566 48.1222 13.5969C47.2866 13.6896 46.652 13.7514 46.2188 13.7823C45.1045 13.8441 44.2842 13.8595 43.7582 13.8286C43.6964 13.8286 43.5878 13.8132 43.4332 13.7823C43.2164 13.7205 43.0464 13.6896 42.9225 13.6896C42.5821 13.6896 42.1951 13.6433 41.7618 13.5506C41.7308 13.5506 41.7 13.5506 41.669 13.5506C41.019 13.427 40.4773 13.2725 40.0441 13.0871C39.6727 12.9326 39.3787 12.8554 39.162 12.8554C38.6977 12.8554 38.4192 13.2571 38.3263 14.0604C38.2953 14.3075 38.187 14.7864 38.0013 15.497C37.7846 16.4549 37.6763 17.1809 37.6763 17.6753C37.6763 18.2932 37.8156 18.6022 38.0942 18.6022C38.4966 18.6022 38.8059 18.5249 39.0227 18.3704C39.2394 18.2468 39.5488 18.0306 39.9512 17.7216C40.4155 17.3508 40.7715 17.1037 41.019 16.9801C42.5357 16.2695 43.6343 15.8524 44.3153 15.7288C44.3771 15.7288 44.4856 15.7133 44.6403 15.6824C44.9499 15.6515 45.182 15.6361 45.3367 15.6361C45.677 15.6361 46.0795 15.6824 46.5438 15.7751C46.5748 15.7751 46.6677 15.7906 46.8223 15.8215C47.2248 15.8832 47.4569 15.9605 47.5187 16.0532C47.5805 16.2077 47.4569 16.4703 47.1473 16.8411C47.0544 16.9646 46.8998 17.15 46.683 17.3972C46.2806 17.8606 46.002 18.2468 45.8474 18.5558C45.6927 18.8339 45.4759 19.359 45.1974 20.1315C44.7949 21.1511 44.3928 21.8616 43.9903 22.2634C43.4642 22.8505 42.8296 23.7928 42.0868 25.0904C41.7154 25.7702 41.4215 26.2644 41.2047 26.5735C41.019 26.8825 40.7405 27.2533 40.3691 27.6857C40.0595 28.0565 39.8273 28.3656 39.6727 28.6126C39.6416 28.6743 39.5952 28.7827 39.5334 28.937C39.4405 29.1224 39.3631 29.2615 39.3013 29.3542C39.2084 29.4778 39.0381 29.7096 38.7906 30.0493C38.3574 30.6365 38.0324 31.0843 37.8156 31.3933C37.4442 31.9185 37.2585 32.2892 37.2585 32.5056C37.2585 32.8454 37.7381 33.0154 38.6977 33.0154C40.4309 33.0771 42.1643 33.0771 43.8975 33.0154C43.9593 33.0154 44.0367 33 44.1296 32.9691C44.2842 32.9381 44.4081 32.9227 44.501 32.9227C44.6249 32.9227 44.7642 32.9381 44.9188 32.9691C45.0117 33 45.1045 33.0154 45.1974 33.0154C48.4783 32.8917 50.9078 32.7683 52.4863 32.6446ZM78.0373 30.6055C78.0373 30.3584 77.8208 30.2347 77.3873 30.2347C77.2945 30.2347 77.1552 30.2501 76.9695 30.281C76.722 30.3427 76.5052 30.3737 76.3195 30.3737C76.2887 30.3737 76.2423 30.3737 76.1802 30.3737C75.7781 30.3737 75.4838 30.281 75.2981 30.0957C75.2674 30.0647 75.2209 30.034 75.1588 30.003C74.9731 29.8486 74.8803 29.7096 74.8803 29.5859C74.8803 29.2461 74.8339 28.829 74.741 28.3346C74.6174 27.593 74.5553 27.0216 74.5553 26.6198C74.5245 25.3222 74.5089 23.6227 74.5089 21.5219C74.5089 21.2438 74.571 21.0431 74.6946 20.9194C74.7256 20.8884 74.741 20.8421 74.741 20.7804C74.741 20.0079 74.6946 19.421 74.6017 19.0193C74.571 18.8649 74.5246 18.6175 74.4625 18.2777C74.3696 17.6598 74.2768 17.1809 74.1839 16.8411C74.1531 16.7793 74.1375 16.6711 74.1375 16.5166C74.1375 16.4239 74.1221 16.3313 74.091 16.2386C74.0603 16.1768 74.0292 16.0686 73.9982 15.9142C73.8435 15.4507 73.6889 15.1263 73.5339 14.9409C72.5746 13.5506 71.2126 12.8554 69.4484 12.8554C68.9534 12.8554 68.4735 12.9172 68.0092 13.0408C66.8021 13.3498 65.75 13.705 64.8522 14.1067C64.7594 14.1685 64.6358 14.2457 64.4808 14.3384C64.2643 14.4929 64.0322 14.6165 63.7844 14.7092C62.9487 15.049 62.0513 15.6979 61.0917 16.6557C60.8442 16.9028 60.6274 17.2427 60.4417 17.6753C60.3181 17.9842 60.1632 18.2468 59.9775 18.4631C59.6989 18.8339 59.5596 19.1736 59.5596 19.4827V19.5291C59.5596 19.6217 59.6525 19.7918 59.8382 20.0388C60.1478 20.4096 60.3645 20.595 60.4882 20.595C61.1074 20.595 62.0202 20.3943 63.2273 19.9925C63.2894 19.9615 63.413 19.9308 63.5987 19.8998C63.8465 19.8688 64.0012 19.8071 64.063 19.7144C64.4036 19.1273 64.5737 18.4322 64.5737 17.6289C64.6047 16.7329 64.6976 16.2077 64.8522 16.0532C65.069 15.8369 65.394 15.7288 65.8272 15.7288C67.1582 15.7288 68.0403 15.9451 68.4735 16.3776C68.8141 16.6866 69.1234 17.2891 69.402 18.1851C69.4641 18.3395 69.4949 18.5868 69.4949 18.9266C69.4949 19.0502 69.5413 19.22 69.6341 19.4364C69.6652 19.5291 69.6805 19.6064 69.6805 19.6681C69.6805 20.2242 69.6341 20.8731 69.5413 21.6146C69.4795 22.0163 69.2473 22.2787 68.8449 22.4024C68.1331 22.6495 67.5142 22.8812 66.9878 23.0976C66.7403 23.2213 66.4928 23.314 66.245 23.3757C65.9665 23.4684 65.5022 23.6227 64.8522 23.8391C64.2951 24.0245 63.8773 24.1635 63.5987 24.2562C62.7323 24.5343 61.7727 25.0441 60.7203 25.7856C59.6371 26.6198 59.0954 27.7167 59.0954 29.0761C59.1264 29.6939 59.405 30.4047 59.931 31.2079C60.6431 32.3202 61.8809 32.8764 63.6451 32.8764C64.0786 32.8764 64.5272 32.83 64.9915 32.7373C65.3011 32.6446 65.5643 32.5983 65.7807 32.5983C66.3379 32.5366 66.9571 32.3976 67.6378 32.1812C68.0092 32.0575 68.3499 31.9495 68.6592 31.8568C68.752 31.8258 68.8759 31.7794 69.0306 31.7177C69.1855 31.656 69.3091 31.6251 69.402 31.6251C69.7427 31.6251 70.0212 31.7641 70.2377 32.0422C70.2687 32.1038 70.2998 32.1502 70.3305 32.1812C70.9187 32.861 71.6769 33.2008 72.6054 33.2008C73.8435 33.2008 74.7567 33.1081 75.3446 32.9227C76.2423 32.5829 76.9695 32.1812 77.5266 31.7177C77.8672 31.4397 78.0373 31.0689 78.0373 30.6055ZM69.3556 28.0565C69.3556 28.8597 69.2627 29.3388 69.077 29.4932C68.3963 30.0183 67.576 30.281 66.6164 30.281C66.1522 30.281 65.6571 30.1574 65.1308 29.9103C65.0379 29.8793 64.9761 29.8486 64.9451 29.8176C64.7594 29.7249 64.6201 29.5242 64.5272 29.2151C64.2797 28.628 64.1558 28.2265 64.1558 28.0102C64.1558 27.9792 64.1558 27.9328 64.1558 27.8711C64.1251 27.346 64.388 26.9132 64.9451 26.5735C65.1618 26.4498 65.4868 26.2644 65.92 26.0173C66.57 25.6466 67.0653 25.3685 67.4057 25.1831C68.1485 24.8741 68.6592 24.7197 68.9377 24.7197C69.1234 24.7197 69.232 25.1058 69.2627 25.8783C69.3248 26.9289 69.3556 27.6547 69.3556 28.0565ZM92.4677 33.0617C92.9009 33 93.1177 32.7837 93.1177 32.4129C93.1177 31.9185 93.0402 31.5477 92.8856 31.3006C92.7927 31.177 92.6534 31.1153 92.4677 31.1153H91.4463C90.6414 31.1153 90.0689 30.9762 89.7286 30.6982C89.419 30.4201 89.2643 29.9103 89.2643 29.1688C89.2643 28.3346 89.1868 27.1606 89.0322 25.6466C88.9393 24.6887 88.8772 23.9472 88.8465 23.422C88.8154 23.0203 88.8308 22.078 88.8929 20.595C88.8929 20.2552 88.8929 20.0388 88.8929 19.9462C88.9547 19.1429 89.1558 18.5712 89.4964 18.2314C89.8678 17.8606 90.3629 17.6753 90.9821 17.6753C91.632 17.6753 92.2199 17.8915 92.7463 18.3241C92.8081 18.355 92.8855 18.4168 92.9784 18.5095C93.2877 18.7565 93.5663 18.8802 93.8141 18.8802C94.6805 18.8802 95.4079 18.6175 95.9961 18.0924C96.6461 17.5362 96.9554 16.6866 96.9246 15.5434C96.9246 15.4816 96.9246 15.4353 96.9246 15.4044C96.9246 14.3539 96.4139 13.8286 95.3926 13.8286C94.2783 13.8286 92.8855 14.1685 91.2142 14.8482C91.1831 14.8482 91.1213 14.8791 91.0285 14.9409C90.1307 15.3426 89.5429 15.5434 89.2643 15.5434C89.1093 15.5434 88.9393 15.1881 88.7536 14.4775C88.7536 14.4466 88.7226 14.3539 88.6608 14.1994C88.6297 14.014 88.5987 13.875 88.5679 13.7823C88.5369 13.6587 88.3822 13.5969 88.1036 13.5969C88.0108 13.5969 87.8251 13.6433 87.5465 13.7359C85.7513 14.2303 84.111 14.7401 82.6253 15.2653C81.9133 15.5434 81.5575 15.8678 81.5575 16.2386C81.5575 16.5166 81.7897 16.841 82.2539 17.2118C82.78 17.6135 83.1978 18.1233 83.5074 18.7412C83.786 19.3283 83.9253 19.9771 83.9253 20.6877C83.9253 21.0274 83.8632 21.5372 83.7396 22.2171C83.6467 22.6805 83.6003 23.1286 83.6003 23.5611C83.6311 23.8701 83.6467 24.3489 83.6467 24.9977C83.7396 26.7279 83.8324 28.0255 83.9253 28.8907C83.9871 29.7249 83.9253 30.3427 83.7396 30.7445C83.6775 30.9299 83.5074 31.0999 83.2289 31.2543C83.1668 31.2543 83.1204 31.2696 83.0896 31.3006C83.0586 31.3316 82.9968 31.378 82.9039 31.4397C82.6561 31.5941 82.4086 31.6714 82.1611 31.6714C81.7897 31.6714 81.5575 31.6867 81.4647 31.7177C81.4026 31.7487 81.3408 31.8414 81.279 31.9958C81.279 32.0885 81.2633 32.1502 81.2326 32.1812C81.1705 32.3666 81.1397 32.5366 81.1397 32.691C81.1397 32.8147 81.1861 32.9074 81.279 32.9691C81.4026 33.0617 81.6811 33.1081 82.1147 33.1081C82.4861 33.1081 83.0432 33.0927 83.786 33.0617C84.4049 33.0617 84.8846 33.0617 85.2252 33.0617C85.3181 33.0617 85.6431 33.0771 86.2002 33.1081C86.6334 33.1081 86.9119 33.1081 87.0358 33.1081C87.3144 33.1081 87.6858 33.1234 88.1501 33.1544C88.9236 33.1854 89.62 33.2008 90.2393 33.2008C91.2296 33.2008 91.9724 33.1544 92.4677 33.0617ZM121.322 22.7268C121.476 23.1286 121.755 23.6537 122.157 24.3026C122.622 25.0131 122.931 25.6156 123.086 26.11C123.581 27.5931 124.509 29.7559 125.871 32.5983C126.181 33.2781 126.583 33.6179 127.078 33.6179C127.573 33.6179 128.022 33.3552 128.425 32.83C129.075 31.9031 129.632 30.8372 130.096 29.6322C130.251 29.2615 130.468 28.5663 130.746 27.5467C131.087 26.2181 131.535 25.2448 132.092 24.627C132.185 24.5343 132.278 24.3489 132.371 24.0708C132.402 24.0091 132.417 23.9628 132.417 23.9318C132.634 23.4374 132.975 22.6495 133.439 21.5682C133.81 20.703 134.104 20.0235 134.321 19.5291L134.785 18.4631C135.373 17.1964 135.807 16.2231 136.085 15.5434C136.518 14.5238 137.23 12.8554 138.221 10.5382C139.025 8.65345 139.644 7.20133 140.078 6.18174C140.356 5.5947 140.697 5.16215 141.099 4.88409C141.408 4.6678 141.935 4.37429 142.678 4.00353C143.142 3.75637 143.498 3.55552 143.745 3.40105C144.179 3.12298 144.395 2.86035 144.395 2.61319C144.395 2.21152 144.194 1.93346 143.792 1.77898C142.801 1.37732 141.935 1.1765 141.192 1.1765C140.542 1.1765 139.815 1.20741 139.01 1.26919C138.36 1.3001 137.757 1.31553 137.199 1.31553C136.921 1.31553 136.658 1.28463 136.41 1.22284C136.132 1.16106 135.76 1.13015 135.296 1.13015C134.151 1.13015 133.578 1.42366 133.578 2.01071C133.578 2.78313 133.903 3.33927 134.553 3.67912C135.141 3.9881 135.621 4.31251 135.992 4.65236C136.518 5.02312 136.596 5.39388 136.224 5.76464C136.101 5.85733 135.93 6.24352 135.714 6.92326C135.652 7.10864 135.605 7.23223 135.574 7.29402C135.234 8.00463 134.832 9.05512 134.367 10.4455C134.058 11.3415 133.779 12.0675 133.532 12.6237C133.315 13.1798 132.975 14.0758 132.51 15.3117C132.139 16.3003 131.845 17.0728 131.628 17.6289C131.38 18.216 131.009 19.1119 130.514 20.3169C130.112 21.2438 129.864 21.8773 129.771 22.2171C129.338 24.1325 128.982 25.0904 128.703 25.0904C128.548 25.0904 128.378 24.9204 128.193 24.5806C128.193 24.5496 128.162 24.5033 128.1 24.4416C127.945 24.1635 127.852 23.8855 127.821 23.6074C127.821 23.5147 127.806 23.3757 127.775 23.1903C127.775 22.9432 127.759 22.7732 127.728 22.6805C127.605 22.3714 127.388 22.0934 127.078 21.8463C126.924 21.7226 126.784 21.5219 126.661 21.2438C125.67 18.9576 124.927 17.2582 124.432 16.1459C124.277 15.7751 124.2 15.4507 124.2 15.1726C124.2 14.8328 124.277 14.5084 124.432 14.1994C124.463 14.1067 124.587 13.8441 124.804 13.4115C125.454 12.0212 126.057 11.017 126.614 10.3991C127.016 9.90476 127.248 9.44132 127.311 9.00877C127.496 7.86559 128.069 6.75332 129.028 5.67195C129.369 5.27028 129.957 4.72961 130.793 4.04988C131.071 3.80272 131.288 3.61734 131.443 3.49374C131.504 3.43196 131.644 3.33927 131.86 3.21567C132.263 2.9376 132.464 2.58228 132.464 2.14974C132.464 1.47001 132.046 1.13015 131.21 1.13015C131.118 1.13015 130.901 1.14559 130.56 1.1765C129.941 1.23828 129.446 1.26919 129.075 1.26919C128.858 1.26919 128.487 1.25375 127.961 1.22284C127.558 1.19194 127.202 1.1765 126.893 1.1765C126.583 1.1765 126.15 1.16106 125.593 1.13015C125.129 1.09925 124.788 1.08381 124.571 1.08381C124.355 1.08381 124.092 1.14559 123.782 1.26919C123.658 1.33097 123.565 1.37732 123.504 1.40822C122.977 1.5936 122.714 1.88711 122.714 2.28878C122.714 2.59775 122.947 2.87582 123.411 3.12298C123.504 3.18476 123.751 3.29292 124.154 3.4474C124.339 3.50918 124.448 3.55552 124.479 3.58643C124.974 3.83359 125.144 4.26616 124.989 4.88409C124.711 6.08905 124.448 6.92326 124.2 7.38671C123.705 8.4372 123.457 9.22506 123.457 9.75029C123.457 10.6463 123.256 11.0943 122.854 11.0943C122.482 11.0943 122.142 10.6926 121.832 9.88933C121.584 9.2405 121.198 8.19001 120.672 6.73788C120.455 6.08905 120.269 5.56382 120.115 5.16215C119.96 4.8223 119.96 4.52877 120.115 4.2816C120.238 4.06532 120.486 3.95719 120.857 3.95719C121.352 3.95719 121.755 3.67912 122.064 3.12298C122.219 2.81401 122.297 2.48959 122.297 2.14974C122.297 1.80989 121.972 1.60904 121.322 1.54726C121.043 1.51635 120.656 1.51635 120.161 1.54726C119.882 1.54726 119.681 1.54726 119.557 1.54726C119.062 1.54726 118.304 1.5627 117.283 1.5936C116.447 1.5936 115.843 1.5936 115.472 1.5936C114.605 1.5936 113.94 1.54726 113.476 1.45457C113.259 1.42366 112.98 1.36188 112.64 1.26919C112.176 1.14559 111.804 1.08381 111.526 1.08381C111.03 1.08381 110.613 1.36188 110.272 1.91802C110.148 2.1034 110.024 2.19609 109.901 2.19609C109.839 2.19609 109.684 2.14974 109.436 2.05705C109.282 1.99527 109.173 1.96436 109.112 1.96436C107.502 1.53182 106.094 1.31553 104.887 1.31553C103.649 1.31553 102.658 1.42366 101.915 1.63995C101.637 1.70173 101.436 1.68629 101.312 1.5936C101.219 1.53182 101.095 1.50091 100.94 1.50091C100.198 1.53182 99.4392 1.53182 98.6656 1.50091C98.1085 1.50091 97.6132 1.74808 97.18 2.24243C96.9322 2.55141 96.8086 2.79857 96.8086 2.98395C96.8086 3.16933 96.9478 3.33927 97.2264 3.49374C97.5978 3.7409 98.1703 4.01897 98.9442 4.32795C99.037 4.35885 99.1142 4.38973 99.1763 4.42064C100.817 5.13125 101.807 6.18174 102.148 7.57209C102.333 8.37539 102.766 9.28684 103.448 10.3064C104.345 11.6659 104.856 12.8245 104.98 13.7823C105.01 13.9986 105.134 14.3384 105.351 14.8019C105.382 14.8946 105.413 14.9718 105.444 15.0336C105.784 15.8678 106.357 17.2272 107.162 19.1119C108.245 21.7999 109.112 23.8545 109.761 25.2758C109.978 25.801 110.303 26.6971 110.736 27.9638C111.324 29.7559 111.928 31.0689 112.547 31.9031C113.073 32.5829 113.661 32.9227 114.311 32.9227C114.806 32.9227 115.286 32.7373 115.75 32.3666C116.091 32.0885 116.369 31.5634 116.586 30.7908C116.679 30.5438 116.756 30.3427 116.818 30.1884C117.87 28.0255 119.047 25.6619 120.347 23.0976C120.594 22.6032 120.826 22.3561 121.043 22.3561C121.136 22.3561 121.229 22.4641 121.322 22.6805V22.7268ZM109.576 3.16933C109.761 3.16933 109.932 3.23111 110.086 3.35471C110.148 3.4474 110.21 3.50918 110.272 3.54009C110.581 3.78725 111.231 3.92628 112.222 3.95719C112.779 3.95719 113.197 4.18891 113.476 4.65236C114.435 5.98092 114.915 7.18589 114.915 8.26726C114.946 8.66892 115.131 9.17872 115.472 9.79664C115.534 9.88933 115.58 9.96658 115.611 10.0284C116.787 12.1293 117.608 13.7205 118.072 14.8019C118.784 16.4085 119.14 17.6289 119.14 18.4631C119.109 18.6485 118.892 19.1273 118.49 19.8998C118.459 19.9308 118.443 19.9615 118.443 19.9925C117.793 21.1975 117.236 22.3251 116.772 23.3757C116.586 23.7774 116.416 24.1482 116.261 24.4879C116.137 24.766 115.998 24.9051 115.843 24.9051C115.719 24.9051 115.472 24.5343 115.1 23.7928C114.791 23.2056 114.419 22.4178 113.986 21.4292C113.801 21.0584 113.646 20.734 113.522 20.4559C113.398 20.1162 113.197 19.6217 112.918 18.9729C112.206 17.15 111.572 15.8215 111.015 14.9873C110.829 14.7092 110.767 14.4002 110.829 14.0604C110.922 13.2879 110.597 12.2838 109.854 11.0479C109.359 10.0901 109.049 9.2714 108.926 8.59167C108.709 7.57208 108.183 6.49072 107.347 5.34753C106.976 4.76049 107.069 4.31251 107.626 4.00353C107.688 3.97263 107.796 3.91084 107.951 3.81815C108.694 3.38561 109.235 3.16933 109.576 3.16933ZM158.42 19.4827C158.42 18.8339 158.776 18.5095 159.487 18.5095H163.527C164.641 18.4786 165.476 18.9729 166.034 19.9925C166.684 21.0738 167.38 21.6146 168.123 21.6146C168.432 21.6146 168.664 21.4909 168.819 21.2438C168.912 21.1201 168.943 20.9194 168.912 20.6413C168.912 20.5176 168.912 20.425 168.912 20.3633C168.974 19.9925 169.005 19.4981 169.005 18.8802C169.005 18.7565 168.989 18.4786 168.958 18.046C168.928 17.3045 168.912 16.702 168.912 16.2386C168.912 15.8369 168.958 15.3117 169.051 14.6628C169.082 14.5392 169.129 14.3693 169.191 14.1531C169.283 13.875 169.33 13.566 169.33 13.2262C169.33 12.8245 169.005 12.6237 168.355 12.6237C167.148 12.6237 166.421 12.9481 166.173 13.5969C166.111 13.7823 166.018 14.0295 165.894 14.3384C165.832 14.5238 165.786 14.6474 165.755 14.7092C165.446 15.3889 165.136 15.7288 164.826 15.7288C164.703 15.7288 164.471 15.6979 164.13 15.6361C163.728 15.5434 163.325 15.497 162.923 15.497C162.397 15.497 161.639 15.5588 160.648 15.6824C159.72 15.806 159.147 15.806 158.93 15.6824C158.621 15.4971 158.466 14.8791 158.466 13.8286C158.466 13.1798 158.497 12.2684 158.559 11.0943C158.621 10.1056 158.652 9.33319 158.652 8.77705C158.652 7.97375 158.544 7.15498 158.327 6.32077C158.141 5.57926 158.126 5.0849 158.28 4.83774C158.466 4.55967 158.652 4.38973 158.837 4.32795C159.58 4.08079 160.772 3.95719 162.412 3.95719C162.877 3.95719 163.449 4.01897 164.13 4.14257C164.44 4.20435 164.687 4.2507 164.873 4.2816C166.544 4.52877 167.721 5.50201 168.401 7.20133C168.742 8.06644 169.314 8.49898 170.119 8.49898C170.707 8.49898 171.032 8.09732 171.094 7.29402C171.187 6.49072 171.233 5.2085 171.233 3.4474C171.233 2.27334 170.661 1.68629 169.516 1.68629C169.206 1.68629 168.68 1.7172 167.937 1.77898C167.318 1.80989 166.823 1.82533 166.451 1.82533C164.006 1.82533 162.227 1.80989 161.112 1.77898C160.586 1.77898 159.766 1.7172 158.652 1.5936C157.414 1.50091 156.485 1.45457 155.866 1.45457C155.123 1.48547 154.04 1.54726 152.616 1.63995L152.106 1.68629C151.92 1.7172 151.626 1.73264 151.224 1.73264C150.605 1.79442 150.109 1.85623 149.738 1.91802C149.057 2.07249 148.717 2.33512 148.717 2.70588C148.717 2.89126 148.887 3.09208 149.227 3.30836C149.754 3.61734 150.187 3.77181 150.527 3.77181C151.301 3.77181 151.812 4.18891 152.059 5.02312C152.647 6.87691 152.941 8.48354 152.941 9.84298C152.941 10.3373 152.911 11.0634 152.849 12.0212C152.756 13.1952 152.709 14.184 152.709 14.9873C152.709 15.3889 152.771 15.8369 152.895 16.3313C152.926 16.4857 152.941 16.5939 152.941 16.6557C152.941 16.8101 152.911 17.0419 152.849 17.3508C152.787 17.598 152.756 17.7834 152.756 17.907C152.756 18.0615 152.709 18.6331 152.616 19.6217C152.462 21.4445 152.384 22.6959 152.384 23.3757C152.384 23.5611 152.415 23.9165 152.477 24.4416C152.539 24.8741 152.57 25.2141 152.57 25.4612C152.57 25.8629 152.493 26.4344 152.338 27.1759C152.276 27.5777 152.23 27.8865 152.199 28.1028C152.106 28.9061 151.997 29.4158 151.874 29.6322C151.657 30.1267 151.038 30.4818 150.016 30.6982C149.924 30.7291 149.738 30.7445 149.459 30.7445C149.057 30.7445 148.748 30.8062 148.531 30.9299C148.159 31.1462 147.974 31.5477 147.974 32.1348C147.974 32.5673 148.191 32.7837 148.624 32.7837C148.717 32.7837 148.872 32.799 149.088 32.83C149.521 32.861 150.032 32.8764 150.62 32.8764C150.899 32.8764 151.301 32.861 151.827 32.83C152.477 32.7683 153.05 32.7373 153.545 32.7373C153.762 32.7373 154.334 32.8147 155.263 32.9691C156.377 33.1234 157.104 33.2008 157.445 33.2008C157.847 33.2008 158.373 33.1854 159.023 33.1544C159.55 33.1234 160.014 33.1081 160.416 33.1081C160.478 33.1081 160.617 33.1081 160.834 33.1081C161.577 33.1391 162.041 33.1234 162.227 33.0617L162.459 32.9691C162.861 32.8764 163.078 32.6136 163.109 32.1812C163.109 31.656 162.892 31.2696 162.459 31.0226C161.933 30.7445 161.221 30.5281 160.323 30.3737C159.519 30.2811 159.008 30.1267 158.791 29.9103C158.605 29.7249 158.513 29.1998 158.513 28.3346C158.482 26.2337 158.451 23.9782 158.42 21.5682C158.42 20.6103 158.42 19.9152 158.42 19.4827Z" fill="#F2F2F2"/>
</svg>
