<svg width="56" height="49" viewBox="0 0 56 49" fill="none" xmlns="http://www.w3.org/2000/svg">
<path fill-rule="evenodd" clip-rule="evenodd" d="M47.4855 45.7874V45.7818L47.5363 45.661L56 3.16259V3.02767C56 1.96802 55.6049 1.04329 54.7526 0.489574C54.0047 0.00331569 53.1439 -0.0304129 52.54 0.0145589C51.9778 0.0651973 51.4231 0.17833 50.8862 0.351847C50.6572 0.425362 50.4313 0.507875 50.2089 0.599192L50.1722 0.613246L2.98516 19.0489L2.97105 19.0545C2.82758 19.1033 2.68717 19.1605 2.55054 19.226C2.21495 19.3761 1.89297 19.5548 1.58817 19.76C0.981401 20.176 -0.172875 21.1541 0.0218559 22.7057C0.182721 23.993 1.07171 24.8081 1.67284 25.2325C2.02766 25.4802 2.40913 25.6876 2.81018 25.8509L2.90049 25.8902L2.92871 25.8987L2.94847 25.9071L11.2062 28.6757C11.178 29.19 11.2288 29.7156 11.3671 30.2356L15.5016 45.8605C15.7274 46.7122 16.2155 47.4721 16.8972 48.0334C17.5789 48.5947 18.42 48.9292 19.3024 48.99C20.1848 49.0507 21.0642 48.8347 21.817 48.3722C22.5698 47.9098 23.1582 47.2241 23.4997 46.4114L29.9568 39.5364L41.0452 48.0023L41.2033 48.0698C42.2108 48.5082 43.1506 48.646 44.0113 48.5307C44.8721 48.4127 45.5551 48.0529 46.0687 47.6453C46.6628 47.1656 47.1363 46.5545 47.4516 45.8605L47.4742 45.8127L47.4826 45.7959L47.4855 45.7874ZM15.4592 29.1619C15.4135 28.9885 15.4243 28.8052 15.4903 28.6384C15.5563 28.4716 15.6739 28.3301 15.8261 28.2344L43.8251 10.5267C43.8251 10.5267 45.4732 9.52891 45.414 10.5267C45.414 10.5267 45.7075 10.701 44.8241 11.5189C43.9888 12.2975 24.8684 30.6825 22.9324 32.5432C22.8247 32.6473 22.7493 32.78 22.7151 32.9255L19.5937 44.7868L15.4592 29.1591V29.1619Z" fill="#1E1E1E"/>
</svg>
