<svg width="209" height="314" viewBox="0 0 209 314" fill="none" xmlns="http://www.w3.org/2000/svg">
<g clip-path="url(#clip0_532_54)">
<path d="M52.25 314C81.092 314 104.5 290.555 104.5 261.667V209.333H52.25C23.408 209.333 0 232.779 0 261.667C0 290.555 23.408 314 52.25 314Z" fill="#0ACF83"/>
<path d="M0 157C0 128.112 23.408 104.667 52.25 104.667H104.5V209.333H52.25C23.408 209.333 0 185.888 0 157Z" fill="#A259FF"/>
<path d="M0 52.3333C0 23.4453 23.408 0 52.25 0H104.5V104.667H52.25C23.408 104.667 0 81.2213 0 52.3333Z" fill="#F24E1E"/>
<path d="M104.5 0H156.75C185.592 0 209 23.4453 209 52.3333C209 81.2213 185.592 104.667 156.75 104.667H104.5V0Z" fill="#FF7262"/>
<path d="M209 157C209 185.888 185.592 209.333 156.75 209.333C127.908 209.333 104.5 185.888 104.5 157C104.5 128.112 127.908 104.667 156.75 104.667C185.592 104.667 209 128.112 209 157Z" fill="#1ABCFE"/>
</g>
<defs>
<clipPath id="clip0_532_54">
<rect width="209" height="314" fill="white"/>
</clipPath>
</defs>
</svg>
