<svg width="274" height="274" viewBox="0 0 274 274" fill="none" xmlns="http://www.w3.org/2000/svg">
<g clip-path="url(#clip0_572_119)">
<path d="M209.781 0H64.2188C28.7517 0 0 28.7517 0 64.2188V209.781C0 245.248 28.7517 274 64.2188 274H209.781C245.248 274 274 245.248 274 209.781V64.2188C274 28.7517 245.248 0 209.781 0Z" fill="#D34A47"/>
<path d="M165.289 247.636L167.548 209.991L173.787 199.342C173.787 199.342 159.588 205.15 135.819 205.15C112.049 205.15 98.0663 199.45 98.0663 199.45L105.058 211.066L107.531 247.636C107.531 251.557 120.46 254.734 136.41 254.734C152.359 254.734 165.289 251.557 165.289 247.636ZM158.162 71.8405L162.905 53.0971L189.164 25.466L182.243 19.5707L154.442 49.0043L148.936 71.3984C144.792 71.2597 140.646 71.1909 136.5 71.1919C107.221 71.1919 83.4844 74.528 83.4844 78.6434C83.4844 82.7598 107.221 86.096 136.5 86.096C165.78 86.096 189.516 82.7598 189.516 78.6434C189.516 75.6133 176.642 73.005 158.162 71.8405Z" fill="white"/>
<path d="M155.404 82.337C155.404 82.337 154.377 82.5682 151.356 82.581C148.334 82.5928 146.189 82.5607 145.334 81.7826C145.104 81.5738 144.979 81.1586 144.98 80.8771C144.982 80.3419 145.362 80.0272 145.846 79.8303L146.303 80.5474C146.105 80.6159 145.99 80.6973 145.99 80.7839C145.988 81.1907 149.08 81.4689 151.445 81.439C153.809 81.409 156.667 81.2142 156.669 80.8139C156.669 80.693 156.454 80.5785 156.077 80.4896L156.533 79.7768C157.145 79.9662 157.68 80.3333 157.679 80.9702C157.674 82.0512 156.298 82.216 155.404 82.337ZM189.112 25.5205C189.773 24.7584 188.771 22.8073 186.874 21.1643C184.978 19.5225 182.904 18.8096 182.243 19.5717C181.583 20.3338 182.584 22.285 184.482 23.9279C186.378 25.5697 188.452 26.2836 189.112 25.5205ZM164.026 155.685C163.403 149.697 177.123 141.025 173.602 140.748C166.022 141.181 162.25 149.631 158.436 158.48C157.039 161.723 152.257 175.553 149.121 173.851C145.985 172.149 153.186 160.776 155.204 154.022C152.875 155.729 144.335 162.365 142.134 156.151C138.596 159.157 131.035 160.784 131.888 152.891C130.005 156.225 125.781 160.88 120.71 158.946C114.049 156.406 124.568 135.191 127.184 136.261C129.8 137.332 126.656 142.164 125.832 144.04C124.021 148.171 121.93 153.363 123.328 154.426C125.721 156.246 132.236 147.537 132.381 147.346C133.599 145.736 137.07 135.204 139.869 136.413C142.667 137.623 132.89 151.528 136.546 154.288C137.282 154.845 140.3 153.944 142.134 151.959C143.321 150.675 142.913 147.83 146.87 138.392C150.828 128.954 154.356 117.201 157.069 118.097C159.784 118.992 157.547 125.024 156.573 127.273C152.003 137.827 144.102 155.265 147.829 153.944C151.555 152.624 153.495 152.547 157.144 148.278C160.793 144.007 160.625 136.974 163.057 137.124C165.489 137.274 165.082 139.529 164.491 141.246C166.885 138.507 175.837 132.738 177.999 138.451C180.559 145.216 165.19 154.987 169.022 154.488C172.758 154.002 178.81 150.169 181.395 146.683L188.509 82.7319C188.509 82.7319 181.35 88.655 135.812 88.655C90.2721 88.655 83.8545 82.8539 83.8545 82.8539L89.9103 141.228C93.1255 132.092 100.759 113.612 112.791 114.231C118.264 114.514 125.571 125.053 119.312 125.411C116.663 125.56 116.394 120.15 113.257 119.355C110.993 118.781 107.841 120.622 105.804 122.616C101.743 126.591 93.0057 142.277 94.1595 150.096C95.6311 160.066 107.917 146.632 109.997 142.644C111.461 139.834 112.45 131.51 115.651 132.384C118.855 133.257 115.372 141.847 113.052 149.442C110.443 157.971 109.073 166.967 105.806 165.933C102.536 164.898 107.861 153.888 107.668 151.959C104.596 154.794 98.9352 161.969 91.6945 158.418L95.4556 194.667C95.4556 194.667 105.452 202.565 135.564 202.565C165.678 202.565 176.044 194.79 176.044 194.79L180.715 152.805C176.894 156.526 164.8 163.133 164.026 155.685Z" fill="white"/>
</g>
<defs>
<clipPath id="clip0_572_119">
<rect width="274" height="274" fill="white"/>
</clipPath>
</defs>
</svg>
