<svg width="217" height="217" viewBox="0 0 217 217" fill="none" xmlns="http://www.w3.org/2000/svg">
<path d="M47.0583 34.62C34.5944 52.531 36.1456 75.8364 45.6681 94.8714L46.3649 96.2242L46.8108 97.0821L47.0888 97.5754L47.5855 98.4638C47.8805 98.9842 48.184 99.5013 48.4942 100.022L49.013 100.876C49.3571 101.429 49.7081 101.978 50.0675 102.526L50.5167 103.219C51.0135 103.96 51.5204 104.697 52.0442 105.425L52.0883 105.481L52.346 105.828C52.7986 106.452 53.2648 107.069 53.7378 107.681L54.2617 108.347C54.6838 108.878 55.1127 109.404 55.5484 109.931L56.0401 110.517C56.6249 111.206 57.2234 111.894 57.832 112.565L57.8676 112.603L57.9371 112.679C58.5322 113.328 59.1408 113.964 59.7596 114.6L60.3428 115.188C60.8208 115.669 61.3074 116.142 61.7973 116.614L62.3924 117.18C63.0485 117.797 63.7097 118.404 64.3861 118.994L64.4166 119.021L64.7641 119.316C65.3592 119.833 65.9644 120.342 66.5747 120.845L67.3241 121.444C67.8225 121.842 68.326 122.237 68.8329 122.624L69.6415 123.236C70.201 123.648 70.7655 124.053 71.3352 124.451L71.9506 124.889L72.1218 125.011C72.6609 125.384 73.2153 125.741 73.7662 126.099L74.4783 126.574C75.3259 127.108 76.1855 127.638 77.0535 128.15L77.7655 128.552C78.4046 128.92 79.0471 129.283 79.6981 129.635L80.7679 130.188L82.1513 130.907L82.47 131.061L83.0362 131.334C83.7601 131.68 84.4908 132.021 85.2283 132.35L85.6911 132.556C86.5353 132.926 87.3881 133.28 88.2476 133.621L88.8715 133.865C89.6666 134.174 90.4736 134.474 91.2839 134.759L91.5874 134.864C92.4757 135.176 93.3742 135.462 94.2778 135.745L94.9271 135.939C95.846 136.217 96.7564 136.546 97.7041 136.722C157.978 147.713 175.485 100.503 175.485 100.503C160.78 119.66 134.681 124.712 109.951 119.087C109.013 118.875 108.105 118.582 107.191 118.314L106.503 118.104C105.611 117.832 104.725 117.544 103.844 117.239L103.48 117.109C102.695 116.831 101.914 116.541 101.137 116.239L100.479 115.981C99.6299 115.646 98.784 115.295 97.9499 114.93L97.4447 114.705C96.7291 114.383 96.0176 114.053 95.3103 113.713L94.6932 113.416C94.1388 113.147 93.5912 112.86 93.042 112.577L91.9417 111.999C91.272 111.643 90.616 111.27 89.9633 110.89L89.2953 110.519C88.4283 110.006 87.5693 109.479 86.7184 108.939L86.0234 108.476C85.406 108.08 84.795 107.673 84.1907 107.257L83.5991 106.842C83.0167 106.432 82.4391 106.015 81.8665 105.591L81.0985 105.009C80.5729 104.608 80.0508 104.202 79.5354 103.787L78.8386 103.228C78.1808 102.688 77.5315 102.143 76.8907 101.585L76.6771 101.407C75.9852 100.797 75.3025 100.176 74.6292 99.5454L74.0528 98.9893C73.5535 98.5174 73.0629 98.0365 72.5812 97.5466L72.0048 96.9702C71.3911 96.3429 70.7893 95.7072 70.1993 95.0613L70.1095 94.9646C69.4857 94.2821 68.8752 93.5874 68.2785 92.8811L67.7987 92.3115C67.3522 91.7745 66.913 91.2314 66.4815 90.6823L65.9983 90.0804C65.4813 89.4124 64.9738 88.737 64.4759 88.0545C50.7473 69.3264 45.8139 43.4966 56.7877 22.2849M85.7453 19.5283C76.733 32.4974 77.2213 49.8625 84.2535 63.5776C85.43 65.8833 86.7616 68.1064 88.2391 70.2317C89.5886 72.1695 91.0873 74.4717 92.8792 76.0263C93.5285 76.7417 94.2083 77.4402 94.9017 78.1251L95.434 78.6523C96.1071 79.305 96.792 79.9476 97.4989 80.5714L97.5837 80.6443L97.604 80.6647C98.3873 81.3513 99.1959 82.0107 100.016 82.6617L100.564 83.089C101.388 83.7196 102.227 84.3401 103.088 84.9318L103.161 84.9877L104.314 85.7455L104.86 86.1066C105.475 86.5016 106.098 86.8848 106.732 87.2527L106.996 87.4086C107.542 87.7223 108.095 88.0308 108.649 88.3326L109.237 88.6377L110.393 89.2379L110.568 89.3176C111.363 89.7075 112.163 90.0855 112.982 90.4415L113.515 90.6619C114.169 90.9383 114.828 91.2095 115.493 91.4638L116.341 91.7757C116.944 91.9995 117.548 92.2047 118.158 92.4081L118.979 92.6709C119.845 92.9387 120.703 93.2795 121.605 93.4304C168.141 101.139 178.884 65.3085 178.884 65.3085C169.2 79.2576 150.445 85.9117 130.432 80.7172C129.548 80.484 128.669 80.2302 127.796 79.956L127.004 79.7C126.386 79.5009 125.771 79.2895 125.161 79.066L124.329 78.7558C123.663 78.4993 123.001 78.2319 122.344 77.9539L121.81 77.7284C120.992 77.3716 120.182 76.9951 119.382 76.5993L118.165 75.9805L117.463 75.6194C116.944 75.338 116.429 75.0464 115.922 74.748L115.554 74.5395C114.925 74.1728 114.303 73.793 113.689 73.4003L113.126 73.0256L111.919 72.2254C111.066 71.633 110.227 71.0197 109.403 70.386L108.837 69.9384C100.077 63.0233 93.1335 53.5702 89.8327 42.8524C86.3726 31.7363 87.1185 19.2588 93.1132 9.13096M118.283 8.25278C112.97 16.0716 112.448 25.784 116.135 34.4199C120.023 43.5865 127.989 50.7763 137.288 54.1873L138.444 54.5857L138.953 54.7484C139.5 54.9213 140.044 55.1214 140.611 55.2265C166.307 60.1921 173.276 42.0421 175.131 39.3685C169.026 48.1587 158.766 50.2694 146.176 47.2128C145.146 46.95 144.13 46.636 143.132 46.2719C141.901 45.834 140.693 45.3327 139.514 44.7698C137.277 43.6927 135.153 42.3968 133.172 40.9011C121.906 32.3533 114.91 16.0495 122.261 2.77014" fill="#0868AC"/>
<path d="M112.499 163.25H105.335C105.132 163.258 104.938 163.331 104.78 163.458C104.622 163.586 104.509 163.761 104.459 163.957L101.916 175.723L99.3726 187.488C99.3226 187.685 99.2104 187.86 99.0528 187.987C98.8951 188.114 98.7004 188.187 98.4978 188.195H93.4272C88.4107 188.195 88.9905 184.725 90.0179 179.971L90.0484 179.827L90.1603 179.227L90.1806 179.115L90.4095 177.894L90.6553 176.587L90.9164 175.256L92.0726 169.608L93.2305 163.959C93.2526 163.873 93.2542 163.782 93.235 163.695C93.2159 163.608 93.1767 163.527 93.1205 163.458C93.0643 163.389 92.9926 163.334 92.9114 163.298C92.8301 163.261 92.7414 163.244 92.6524 163.248H85.2998C85.0973 163.256 84.9027 163.329 84.7455 163.457C84.5882 163.585 84.4769 163.76 84.4284 163.957L82.8467 171.457L81.2667 178.959L81.2633 178.969L81.1175 179.668C79.2967 187.98 79.7782 195.909 89.6754 196.158L89.9636 196.163H105.498C105.7 196.155 105.895 196.082 106.053 195.955C106.21 195.828 106.323 195.652 106.373 195.456L109.723 179.708L113.072 163.959C113.156 163.569 112.898 163.252 112.499 163.25ZM35.7764 163.167H27.9101C27.7069 163.175 27.5115 163.248 27.3526 163.375C27.1937 163.502 27.0795 163.676 27.0269 163.872L26.2809 167.165L25.535 170.457C25.4485 170.845 25.7011 171.162 26.0995 171.162H34.0268C34.2298 171.155 34.425 171.082 34.5832 170.954C34.7415 170.827 34.8543 170.652 34.905 170.455L35.6255 167.165L36.346 163.874C36.4291 163.486 36.1748 163.167 35.7764 163.167ZM33.4945 173.414H25.5655C25.3623 173.422 25.1671 173.495 25.0082 173.621C24.8494 173.748 24.7352 173.923 24.6822 174.119L23.5684 179.052L22.4563 183.984L22.146 185.398L21.0763 190.433L20.0083 195.47C19.9252 195.858 19.754 196.485 19.6268 196.861C19.6268 196.861 18.1451 201.269 15.6547 201.218L15.3428 201.212L13.188 201.173C12.9856 201.177 12.7884 201.247 12.6285 201.371C12.4685 201.495 12.3527 201.668 12.298 201.863L11.4758 205.319L10.6552 208.774C10.562 209.161 10.8129 209.48 11.2079 209.486C12.6201 209.503 15.7835 209.539 17.6975 209.539C23.9176 209.539 27.1981 206.092 29.2986 196.175L31.7585 184.793L34.0658 174.117C34.1489 173.732 33.8912 173.414 33.4945 173.414ZM179.49 170.745L179.161 169.387L178.837 167.997L178.673 167.295C178.028 164.791 176.138 163.348 172.032 163.348L165.641 163.342L159.755 163.333H153.131C152.929 163.341 152.734 163.414 152.577 163.541C152.419 163.669 152.307 163.844 152.258 164.04L151.965 165.424L151.619 167.058L151.522 167.517L148.54 181.487L145.709 194.747C145.624 195.137 145.597 195.615 145.644 195.809C145.692 196.004 146.457 196.163 146.853 196.163H152.828C153.226 196.163 153.729 196.092 153.946 196.004C154.163 195.915 154.484 195.134 154.564 194.746L155.625 189.492L156.688 184.236L156.689 184.228L156.832 183.528L158.12 177.492L159.258 172.162C159.308 171.966 159.42 171.792 159.577 171.664C159.735 171.537 159.929 171.464 160.131 171.455L178.93 171.447C179.329 171.45 179.58 171.133 179.49 170.745ZM203.69 158.471L202.242 158.476H196.226C196.005 158.489 195.79 158.548 195.595 158.652C195.4 158.755 195.229 158.899 195.095 159.075L181.789 178.567C181.565 178.896 181.309 178.849 181.221 178.462L180.241 174.168C180.188 173.971 180.074 173.797 179.914 173.67C179.755 173.543 179.559 173.47 179.356 173.463H170.803C170.405 173.463 170.169 173.775 170.277 174.156L174.11 187.585C174.219 187.968 174.227 188.595 174.129 188.982L172.459 195.48C172.359 195.866 172.603 196.18 173.002 196.18H181.456C181.661 196.172 181.858 196.1 182.019 195.974C182.181 195.849 182.299 195.676 182.358 195.48L184.03 188.982C184.162 188.524 184.37 188.091 184.645 187.702L206.247 159.032C206.488 158.714 206.357 158.454 205.96 158.458L203.69 158.471ZM135.732 175.287V175.28C135.703 175.485 135.601 175.672 135.446 175.809C135.291 175.946 135.093 176.024 134.886 176.028H124.041C123.665 176.028 123.475 175.773 123.531 175.458L123.541 175.433L123.534 175.436L123.539 175.4L123.588 175.216C124.624 172.462 126.733 170.655 130.699 170.655C135.164 170.654 136.035 172.834 135.732 175.287ZM132.55 162.769C118.63 162.769 115.331 171.218 113.479 179.747C111.63 188.441 111.787 196.566 126.194 196.566H127.94L128.374 196.565H128.476L130.205 196.56H130.236C134.04 196.544 137.856 196.516 139.401 196.504C139.602 196.494 139.795 196.419 139.95 196.291C140.105 196.162 140.215 195.987 140.264 195.792L140.847 192.942L140.96 192.388L141.655 188.987C141.678 188.901 141.679 188.81 141.66 188.723C141.641 188.636 141.602 188.555 141.545 188.486C141.489 188.417 141.417 188.363 141.336 188.326C141.255 188.29 141.166 188.274 141.077 188.278H128.127C122.975 188.278 121.446 186.91 122.01 182.885H142.712L142.71 182.887L142.723 182.885C142.887 182.878 143.045 182.824 143.179 182.729C143.313 182.635 143.417 182.503 143.478 182.351L143.527 182.172L143.525 182.173C146.599 170.579 145.717 162.77 132.55 162.769ZM66.7548 175.243L66.5581 175.936L64.9951 181.478L63.432 187.017C63.3681 187.213 63.2456 187.385 63.081 187.51C62.9165 187.634 62.7177 187.705 62.5114 187.714H54.2383C47.9623 187.714 46.4331 182.804 47.9623 175.565C49.4897 168.16 52.4854 163.557 58.6631 163.091C67.1057 162.453 68.7943 168.39 66.7548 175.243ZM72.4307 187.288C72.4307 187.288 76.3316 177.815 77.2166 172.346C78.4253 165.023 74.7584 154.401 60.5957 154.401C46.5145 154.401 40.3978 164.54 38.065 175.565C35.7323 186.669 38.7889 196.405 52.7905 196.326L63.8372 196.285L74.1599 196.248C74.3645 196.238 74.5611 196.165 74.723 196.039C74.8849 195.914 75.0044 195.741 75.0652 195.546L76.864 188.687C76.964 188.3 76.7216 187.985 76.3232 187.981L74.599 187.971L72.8749 187.961C72.5375 187.959 72.3443 187.739 72.3849 187.449L72.4307 187.288ZM142.142 180.946C142.142 181.008 142.13 181.07 142.106 181.128C142.082 181.185 142.048 181.238 142.004 181.282C141.96 181.326 141.907 181.361 141.85 181.385C141.792 181.409 141.73 181.421 141.668 181.421C141.606 181.421 141.544 181.409 141.486 181.386C141.429 181.362 141.376 181.327 141.332 181.283C141.288 181.239 141.253 181.187 141.229 181.129C141.205 181.072 141.193 181.01 141.193 180.948C141.192 180.822 141.242 180.701 141.331 180.612C141.42 180.522 141.541 180.472 141.666 180.472C141.792 180.472 141.913 180.522 142.002 180.61C142.092 180.699 142.142 180.82 142.142 180.946Z" fill="#F2F3F4"/>
</svg>
