<svg width="310" height="310" viewBox="0 0 310 310" fill="none" xmlns="http://www.w3.org/2000/svg">
<path d="M19.375 19.375H290.625V290.625H19.375V19.375Z" fill="#F5DE19"/>
<path d="M201.587 231.289C203.898 235.984 207.489 239.929 211.945 242.672C216.402 245.414 221.542 246.841 226.774 246.789C237.334 246.789 244.086 241.509 244.086 234.195C244.086 225.477 237.15 222.357 225.525 217.271L219.15 214.539C200.744 206.702 188.538 196.889 188.538 176.138C188.538 157.025 203.069 142.464 225.864 142.464C233.243 141.932 240.615 143.583 247.062 147.213C253.509 150.843 258.744 156.29 262.114 162.876L242.187 175.615C240.889 172.35 238.629 169.556 235.707 167.604C232.785 165.653 229.339 164.635 225.825 164.688C224.292 164.534 222.744 164.702 221.279 165.179C219.815 165.657 218.466 166.435 217.318 167.463C216.171 168.491 215.25 169.747 214.615 171.15C213.98 172.554 213.644 174.074 213.629 175.615C213.629 183.258 218.366 186.358 229.303 191.115L235.677 193.847C257.339 203.137 269.584 212.602 269.584 233.885C269.584 256.835 251.555 269.409 227.346 269.409C217.913 270.01 208.508 267.869 200.266 263.243C192.023 258.617 185.296 251.705 180.894 243.34L201.587 231.289ZM111.542 233.498C115.543 240.599 119.185 246.605 127.943 246.605C136.313 246.605 141.602 243.331 141.602 230.592V143.918H167.09V230.931C167.09 257.319 151.59 269.332 129.028 269.332C121.052 269.768 113.132 267.78 106.307 263.631C99.4828 259.481 94.0737 253.363 90.791 246.082L111.542 233.498Z" fill="black"/>
</svg>
