<svg width="331" height="331" viewBox="0 0 331 331" fill="none" xmlns="http://www.w3.org/2000/svg">
<path d="M167.269 193.428C162.293 195.714 156.842 198.693 145.93 204.682C141.792 207.009 137.468 209.337 133.445 211.53C133.165 211.25 132.876 210.899 132.597 210.609C111.009 187.543 71.0822 171.251 72.7786 140.272C73.4096 128.987 77.2885 99.3621 149.457 63.3865C208.851 34.1137 256.111 42.2232 264.272 60.211C276.002 85.8531 238.941 133.569 177.602 140.489C170.813 141.866 163.802 141.7 157.086 140.002C150.371 138.305 144.122 135.12 138.803 130.683C135.555 127.156 135.069 126.949 133.869 127.652C131.893 128.687 133.165 131.883 133.869 133.714C136.209 137.95 139.374 141.674 143.178 144.666C146.982 147.658 151.347 149.857 156.015 151.133C180.153 156.35 205.32 153.857 227.966 144.006C265.141 129.618 294.166 89.6183 285.663 56.0838C277.13 22.0839 220.694 10.8713 167.3 29.8417C133.861 41.1101 102.967 58.8488 76.3782 82.0466C46.9606 109.561 42.3059 133.476 44.2092 143.489C51.0567 179.04 100.065 202.179 119.719 219.319C118.684 219.887 117.815 220.353 117.04 220.798C107.234 225.67 69.8513 245.209 60.5316 265.876C49.95 289.294 62.228 306.082 70.3375 308.337C82.5585 311.264 95.3886 310.302 107.036 305.584C118.684 300.867 128.567 292.629 135.307 282.022C141.03 273.227 144.544 263.179 145.55 252.734C146.557 242.289 145.027 231.755 141.089 222.029C143.412 220.175 145.89 218.525 148.495 217.095C153.501 214.136 158.27 211.219 162.5 208.964C176.985 202.18 192.793 198.686 208.789 198.734C242.364 202.686 248.995 223.632 247.722 232.455C247.127 235.586 245.868 238.552 244.031 241.155C242.193 243.758 239.819 245.938 237.068 247.547C234.741 249.026 233.965 249.522 234.172 250.577C234.451 252.129 235.579 252.057 237.555 251.777C242.599 250.183 247.043 247.1 250.304 242.933C253.564 238.767 255.487 233.711 255.822 228.431C256.856 207.744 237.13 185.05 202.21 185.257C191.754 185.275 181.402 187.337 171.737 191.328C170.186 191.97 168.679 192.659 167.217 193.397L167.269 193.428ZM117.36 274.513C106.21 286.646 90.694 291.228 83.9912 287.349C76.7506 283.212 79.6158 265.265 93.3006 252.429C101.406 245.126 110.166 238.586 119.47 232.89C121.094 231.855 123.494 230.49 126.38 228.752L127.156 228.328L128.852 227.294C131.293 235.477 131.515 244.161 129.496 252.458C127.476 260.755 123.288 268.367 117.36 274.513Z" fill="#CD6799"/>
</svg>
