<?xml version="1.0" encoding="utf-8"?><svg viewBox="0 0 172 68" xmlns="http://www.w3.org/2000/svg" xmlns:xlink="http://www.w3.org/1999/xlink"><style>:root>svg{display:none}:root>svg:target{display:block}</style><svg viewBox="0 0 68 68" id="Github" xmlns="http://www.w3.org/2000/svg"><path d="M64.26 3.74C61.765 1.247 58.763 0 55.25 0h-42.5C9.237 0 6.235 1.246 3.74 3.74 1.247 6.236 0 9.238 0 12.75v42.5c0 3.513 1.246 6.515 3.74 9.01C6.236 66.754 9.238 68 12.75 68h9.918c.646 0 1.133-.024 1.46-.068.38-.076.723-.279.973-.575.324-.34.487-.834.487-1.48l-.024-3.013c-.013-1.92-.02-3.438-.02-4.56l-1.021.176c-.647.12-1.464.17-2.454.157a18.911 18.911 0 01-3.077-.31A6.895 6.895 0 0116.024 57a5.619 5.619 0 01-1.947-2.723l-.442-1.021a11.062 11.062 0 00-1.396-2.257c-.633-.827-1.276-1.385-1.926-1.681l-.306-.221a3.255 3.255 0 01-.58-.531 2.46 2.46 0 01-.397-.62c-.089-.207-.014-.378.22-.51.24-.136.665-.201 1.287-.201l.885.136c.59.116 1.321.47 2.189 1.058a7.146 7.146 0 012.147 2.305c.681 1.208 1.498 2.13 2.458 2.767.96.633 1.926.953 2.9.953.973 0 1.814-.075 2.525-.221a8.813 8.813 0 001.991-.668c.266-1.974.987-3.498 2.168-4.56a30.321 30.321 0 01-4.537-.797 18.124 18.124 0 01-4.162-1.725 11.912 11.912 0 01-3.564-2.968c-.943-1.181-1.719-2.73-2.324-4.646-.603-1.92-.906-4.136-.906-6.644 0-3.57 1.164-6.61 3.496-9.122-1.09-2.682-.987-5.694.31-9.026.857-.269 2.127-.068 3.808.596 1.681.663 2.914 1.232 3.696 1.702.783.476 1.41.874 1.883 1.198a31.423 31.423 0 018.498-1.15c2.924 0 5.756.384 8.502 1.15l1.682-1.062a23.813 23.813 0 014.074-1.947c1.566-.592 2.757-.752 3.587-.487 1.328 3.336 1.443 6.344.35 9.03 2.332 2.508 3.5 5.548 3.5 9.121 0 2.509-.303 4.731-.91 6.661-.602 1.933-1.384 3.482-2.344 4.65a12.423 12.423 0 01-3.584 2.944c-1.43.796-2.818 1.371-4.163 1.725a30.2 30.2 0 01-4.537.8c1.532 1.328 2.301 3.42 2.301 6.283v10.585c0 .5.072.905.221 1.215a1.224 1.224 0 00.708.644c.327.115.613.19.865.217a8.89 8.89 0 001.082.045h9.918c3.513 0 6.515-1.246 9.01-3.74 2.49-2.492 3.74-5.498 3.74-9.01V12.75c0-3.513-1.246-6.515-3.74-9.01z"/></svg><svg viewBox="0 0 172 34" id="logo-az" xmlns="http://www.w3.org/2000/svg"><path d="M13.278 23.793c.155.154.418.432.79.834.37.37.773.556 1.206.556.526 0 .944-.232 1.254-.695.247-.402.51-.695.789-.88a.54.54 0 01.14-.093c.463-.31 1.19-.464 2.181-.464.681 0 1.13.541 1.347 1.622.03.155.185.618.464 1.39.743 2.04 1.114 3.322 1.114 3.847 0 .278-.433.51-1.3.695a.355.355 0 01-.14.047c-.061 0-.17.015-.324.046-.836.186-1.254.587-1.254 1.205 0 .649.434.973 1.3.973.217 0 .852-.015 1.904-.046a64.27 64.27 0 012.832-.093c.65 0 1.547.093 2.693.278.618.093 1.052.14 1.3.14l.789.046c1.361.062 2.414.046 3.157-.047.402-.061.603-.34.603-.834 0-.803-.464-1.313-1.392-1.53a21.15 21.15 0 00-1.208-.277c-.866-.155-1.454-.371-1.764-.65-.557-.462-.99-1.374-1.3-2.733-.124-.495-.526-1.56-1.207-3.198-.402-1.05-.696-1.839-.882-2.364-.124-.34-.418-.973-.882-1.9-.402-.772-.665-1.344-.79-1.715-.123-.278-.309-.85-.556-1.714a29.083 29.083 0 00-.511-1.623c-.031-.154-.17-.37-.418-.648-.31-.433-.526-.804-.65-1.113-.155-.401-.34-.942-.557-1.622a23.713 23.713 0 00-.836-2.502c-.278-.65-.665-1.808-1.16-3.476a49.97 49.97 0 00-.232-.742 10.08 10.08 0 01-.186-.417c-.402-.803-.666-1.406-.79-1.807-.092-.31-.139-.51-.139-.603v-.324c0-.247-.17-.448-.51-.603a2.93 2.93 0 00-.929-.139c-.526 0-.944.155-1.253.464a5 5 0 00-.232.278 6.633 6.633 0 01-.372.417 7.008 7.008 0 01-.557.463c-.34.279-.588.587-.743.927-.093.247-.201.835-.325 1.761-.062.526-.124.881-.186 1.066-.03.124-.154.387-.37.788a1.356 1.356 0 00-.233.371 87.325 87.325 0 01-1.068 2.503c-.34.803-.913 2.147-1.718 4.032a492.77 492.77 0 01-1.16 2.734c-.062.154-.14.494-.232 1.02-.062.401-.124.68-.186.834-.155.37-.372.695-.65.973-.093.093-.186.247-.279.463-.03.031-.046.062-.046.093-.464 1.112-1.006 2.61-1.625 4.496-.31.895-.526 1.467-.65 1.714-.093.217-.232.51-.418.88-.093.186-.232.526-.418 1.02-.526 1.33-1.439 2.132-2.739 2.41C.588 30.574 0 31.007 0 31.625c0 .402.279.773.836 1.112.123.062.557.078 1.3.047h1.346c.279 0 .68.077 1.207.231.433.155.79.232 1.068.232 2.476 0 3.9-.185 4.271-.556.155-.154.232-.402.232-.742 0-.68-.541-1.08-1.625-1.205a1.991 1.991 0 00-.371-.046c-.836-.154-1.099-.649-.79-1.483.124-.34.248-.726.372-1.159l.14-.417c.092-.278.262-.726.51-1.344.279-.71.48-1.236.604-1.575.03-.062.092-.247.185-.556.279-.896.697-1.345 1.254-1.345 1.176 0 2.089.325 2.739.974zm-1.254-3.522c-.68 0-1.021-.186-1.021-.557 0-.123.062-.262.186-.417.155-.185.294-.432.418-.741.092-.278.2-.68.325-1.205.061-.402.154-.726.278-.973a21.8 21.8 0 01.371-.835c.434-.957.743-1.714.929-2.27.186-.495.402-1.113.65-1.854.186-.618.371-1.174.557-1.669 0-.03.016-.077.046-.139.093-.309.264-.463.511-.463.248 0 .465.2.65.602.34.65.65 1.313.929 1.993.185.433.34 1.082.464 1.947.062.401.108.695.14.88.03.185.123.37.278.556.216.248.387.572.51.973.031.093.062.294.093.603.124.865.264 1.56.418 2.085.062.186.217.48.465.881.185.278.278.479.278.603 0 .247-.356.37-1.068.37-.34 0-.743-.247-1.207-.741a12.657 12.657 0 00-.557-.603c-.31-.278-.743-.417-1.3-.417-.248 0-.65.217-1.207.65-.68.493-1.393.74-2.136.74zm40.462 12.374c.155 0 .45-.016.882-.047.526-.03.867-.108 1.022-.231.278-.217.48-.866.603-1.947 0-.216.109-.587.325-1.112.186-.402.279-.726.279-.973 0-.588-.186-.881-.557-.881a1.99 1.99 0 01-.697-.139 1.144 1.144 0 00-.418-.093c-.464 0-.882.294-1.253.88-.34.557-1.052 1.252-2.136 2.086-.711.526-1.547.82-2.507.88-.402.032-.99.032-1.764 0h-.882c-.743 0-1.114-.216-1.114-.648 0-.309.14-.602.418-.88 1.083-1.082 1.965-2.194 2.646-3.337.062-.093.17-.17.325-.232.217-.062.356-.154.418-.278.185-.34.34-.773.464-1.298.093-.463.217-.85.371-1.158.155-.31.496-.788 1.022-1.437.247-.31.433-.556.557-.742a573.71 573.71 0 001.857-2.734c.712-.989 1.269-1.777 1.671-2.364.031-.061.109-.139.233-.231.123-.124.2-.216.232-.278.123-.248.185-.51.185-.788s-.232-.479-.696-.603a12.406 12.406 0 00-3.853-.602c-.465 0-.82.015-1.068.046-.186.031-.495.062-.929.093-.835.093-1.47.154-1.903.185-1.114.062-1.935.078-2.46.047-.063 0-.171-.016-.326-.047a1.995 1.995 0 00-.51-.092c-.34 0-.728-.047-1.161-.14h-.093c-.65-.123-1.192-.277-1.625-.463-.371-.154-.665-.232-.882-.232-.464 0-.743.402-.836 1.205-.03.247-.139.726-.325 1.437-.216.958-.325 1.684-.325 2.178 0 .618.14.927.418.927.403 0 .712-.077.929-.232a9.18 9.18 0 00.928-.648c.465-.371.82-.618 1.068-.742 1.517-.71 2.615-1.128 3.296-1.251.062 0 .17-.016.325-.047.31-.03.542-.046.697-.046.34 0 .742.046 1.207.14.03 0 .124.015.278.046.403.061.635.139.697.231.062.155-.062.417-.372.788a10.32 10.32 0 01-.464.556c-.402.464-.681.85-.836 1.159-.154.278-.371.803-.65 1.575-.402 1.02-.804 1.73-1.207 2.132-.526.587-1.16 1.53-1.903 2.827-.372.68-.666 1.174-.882 1.483a8.58 8.58 0 01-.836 1.113c-.31.37-.542.68-.696.927-.031.061-.078.17-.14.324-.093.185-.17.325-.232.417-.093.124-.263.356-.51.695a75.896 75.896 0 00-.975 1.344c-.372.526-.558.896-.558 1.113 0 .34.48.51 1.44.51a73.06 73.06 0 005.2 0 .77.77 0 00.232-.047 1.99 1.99 0 01.371-.046c.124 0 .263.015.418.046a.875.875 0 00.278.046c3.281-.123 5.71-.247 7.29-.37zm25.551-2.04c0-.247-.216-.37-.65-.37-.093 0-.232.015-.418.046a2.737 2.737 0 01-.65.093h-.139c-.402 0-.696-.093-.882-.278a.532.532 0 00-.14-.093c-.185-.154-.278-.293-.278-.417 0-.34-.046-.757-.139-1.251-.124-.742-.186-1.313-.186-1.715-.03-1.298-.046-2.997-.046-5.098 0-.278.062-.479.186-.603.03-.03.046-.077.046-.139 0-.772-.046-1.359-.14-1.76a54.81 54.81 0 01-.138-.742 13.228 13.228 0 00-.28-1.437c-.03-.062-.046-.17-.046-.324a.869.869 0 00-.046-.278 1.453 1.453 0 01-.093-.325c-.154-.463-.31-.788-.464-.973-.96-1.39-2.321-2.086-4.086-2.086-.495 0-.974.062-1.439.186-1.207.309-2.259.664-3.157 1.066a9.393 9.393 0 01-.371.231 3.009 3.009 0 01-.697.371c-.835.34-1.733.989-2.692 1.947-.248.247-.465.587-.65 1.02a2.787 2.787 0 01-.465.787c-.278.37-.417.71-.417 1.02v.046c0 .093.093.263.278.51.31.37.526.556.65.556.62 0 1.532-.2 2.74-.602.061-.031.185-.062.37-.093.248-.031.403-.093.465-.186.34-.587.51-1.282.51-2.085.032-.896.125-1.421.28-1.576.216-.216.541-.324.974-.324 1.331 0 2.213.216 2.647.649.34.309.65.911.928 1.807.062.155.093.402.093.742 0 .123.046.293.14.51a.78.78 0 01.045.231 15.9 15.9 0 01-.139 1.947c-.061.401-.294.664-.696.787-.712.247-1.33.48-1.857.696a3.614 3.614 0 01-.743.278l-1.393.463-1.253.417c-.867.278-1.826.788-2.879 1.53-1.083.834-1.625 1.93-1.625 3.29.031.618.31 1.329.836 2.132.712 1.112 1.95 1.668 3.714 1.668.434 0 .882-.046 1.346-.139.31-.092.573-.139.79-.139a9.736 9.736 0 001.857-.417 35.54 35.54 0 011.021-.324c.093-.031.217-.078.372-.14a1.08 1.08 0 01.371-.092c.34 0 .62.14.836.417a.552.552 0 00.093.14c.588.679 1.346 1.019 2.274 1.019 1.239 0 2.152-.093 2.74-.278.897-.34 1.624-.742 2.182-1.205.34-.278.51-.65.51-1.113zm-8.681-2.549c0 .804-.093 1.283-.279 1.437-.68.525-1.501.788-2.46.788-.465 0-.96-.124-1.486-.37a.504.504 0 01-.186-.093c-.186-.093-.325-.294-.418-.603-.247-.587-.371-.988-.371-1.205v-.139c-.03-.525.232-.958.79-1.297.216-.124.54-.31.974-.557.65-.37 1.145-.648 1.486-.834.742-.309 1.253-.463 1.532-.463.185 0 .294.386.325 1.158a43.76 43.76 0 01.093 2.178zm23.112 5.006c.433-.062.65-.278.65-.65 0-.493-.078-.864-.232-1.111-.093-.124-.233-.186-.418-.186h-1.022c-.805 0-1.377-.139-1.717-.417-.31-.278-.465-.788-.465-1.53 0-.833-.077-2.007-.232-3.521-.093-.958-.155-1.7-.185-2.225-.032-.402-.016-1.344.046-2.827v-.649c.062-.803.263-1.375.603-1.715.372-.37.867-.556 1.486-.556.65 0 1.238.216 1.764.65.062.03.14.092.232.184.31.247.588.371.836.371.867 0 1.594-.262 2.182-.788.65-.556.96-1.405.929-2.549v-.139c0-1.05-.511-1.575-1.532-1.575-1.115 0-2.508.34-4.179 1.02-.03 0-.093.03-.186.092-.897.402-1.485.602-1.764.602-.155 0-.325-.355-.51-1.066 0-.03-.031-.123-.093-.278a2.991 2.991 0 00-.093-.417c-.031-.123-.186-.185-.464-.185-.093 0-.279.046-.558.139a72.897 72.897 0 00-4.92 1.53c-.713.277-1.069.602-1.069.973 0 .278.233.602.697.973.526.401.944.911 1.253 1.53a4.47 4.47 0 01.418 1.946c0 .34-.062.85-.185 1.53-.093.462-.14.91-.14 1.343.031.31.047.788.047 1.437.093 1.73.185 3.027.278 3.893.062.834 0 1.452-.185 1.854-.063.185-.233.355-.511.51-.062 0-.109.015-.14.046a1.365 1.365 0 01-.185.139 1.395 1.395 0 01-.743.231c-.371 0-.603.016-.696.047-.062.03-.124.123-.186.278 0 .093-.016.154-.046.185a1.616 1.616 0 00-.093.51.31.31 0 00.139.278c.124.093.402.14.836.14.371 0 .928-.016 1.671-.047h1.44c.092 0 .417.015.974.046h.836c.278 0 .65.015 1.114.046.774.031 1.47.047 2.09.047.99 0 1.732-.047 2.228-.14zm28.854-10.335c.154.402.433.927.835 1.576.465.71.774 1.313.929 1.807.495 1.483 1.423 3.646 2.785 6.488.31.68.712 1.02 1.207 1.02.495 0 .944-.263 1.347-.788.65-.927 1.207-1.993 1.671-3.198.155-.37.372-1.066.65-2.085.341-1.329.789-2.302 1.346-2.92.093-.093.186-.278.279-.556a.35.35 0 00.046-.14c.217-.494.558-1.282 1.022-2.363a275.5 275.5 0 01.882-2.039l.464-1.066a74.788 74.788 0 001.3-2.92 6546.212 6546.212 0 003.993-9.362c.278-.586.619-1.019 1.021-1.297.309-.216.836-.51 1.579-.88.464-.248.82-.448 1.067-.603.434-.278.65-.54.65-.788 0-.401-.201-.68-.603-.834-.991-.402-1.857-.602-2.6-.602-.65 0-1.377.03-2.182.092-.65.031-1.253.047-1.811.047-.278 0-.541-.031-.789-.093-.278-.062-.65-.093-1.114-.093-1.145 0-1.718.294-1.718.88 0 .773.325 1.33.975 1.67.588.308 1.068.633 1.439.972.526.371.604.742.232 1.113-.123.092-.294.479-.51 1.158a3.37 3.37 0 01-.14.371c-.34.71-.742 1.761-1.207 3.151a28.133 28.133 0 01-.835 2.179 271.76 271.76 0 00-1.022 2.688c-.371.988-.665 1.76-.882 2.317a325.09 325.09 0 00-1.114 2.688c-.402.927-.65 1.56-.743 1.9-.433 1.916-.789 2.873-1.068 2.873-.155 0-.325-.17-.51-.51 0-.03-.031-.077-.093-.138a2.213 2.213 0 01-.279-.835 2.78 2.78 0 00-.046-.417c0-.247-.016-.417-.047-.51-.123-.309-.34-.587-.65-.834-.154-.123-.294-.324-.417-.602a632.72 632.72 0 00-2.229-5.098c-.155-.37-.232-.695-.232-.973 0-.34.077-.665.232-.974.031-.092.155-.355.372-.787.65-1.39 1.253-2.395 1.81-3.013.402-.494.634-.958.697-1.39.185-1.143.758-2.256 1.717-3.337.341-.402.929-.942 1.765-1.622.278-.247.495-.433.65-.556.061-.062.201-.155.417-.278.403-.278.604-.634.604-1.066 0-.68-.418-1.02-1.254-1.02-.092 0-.309.016-.65.047a15.95 15.95 0 01-1.485.092c-.217 0-.588-.015-1.114-.046a14.088 14.088 0 00-1.068-.046c-.31 0-.743-.016-1.3-.047-.464-.03-.805-.046-1.022-.046-.216 0-.479.062-.789.185a55.8 55.8 0 00-.278.14c-.527.185-.79.478-.79.88 0 .309.233.587.697.834.093.062.34.17.743.324.185.062.294.109.325.14.495.247.665.68.51 1.297-.278 1.205-.541 2.04-.789 2.503-.495 1.05-.743 1.838-.743 2.363 0 .896-.201 1.344-.603 1.344-.372 0-.712-.401-1.022-1.205-.248-.648-.634-1.699-1.16-3.151a40.003 40.003 0 00-.557-1.576c-.155-.34-.155-.633 0-.88.123-.217.371-.325.742-.325.495 0 .898-.278 1.207-.834.155-.309.233-.633.233-.973 0-.34-.325-.541-.975-.603a7.354 7.354 0 00-1.161 0h-.604c-.495 0-1.253.016-2.274.047h-1.811c-.867 0-1.532-.047-1.996-.14a7.163 7.163 0 01-.836-.185c-.464-.123-.836-.185-1.114-.185-.496 0-.913.278-1.254.834-.124.185-.248.278-.371.278-.062 0-.217-.046-.465-.139a1.064 1.064 0 00-.324-.093c-1.61-.432-3.018-.648-4.225-.648-1.238 0-2.229.108-2.972.324-.278.062-.479.046-.603-.046a.663.663 0 00-.372-.093c-.742.03-1.5.03-2.274 0-.557 0-1.053.247-1.486.741-.248.31-.371.557-.371.742 0 .185.139.355.417.51.372.247.944.525 1.718.834.093.03.17.062.232.093 1.641.71 2.631 1.76 2.972 3.151.185.803.618 1.715 1.3 2.734.897 1.36 1.408 2.519 1.532 3.476.03.217.154.556.371 1.02.031.093.062.17.093.232.34.834.913 2.193 1.718 4.078 1.083 2.688 1.95 4.743 2.599 6.164.217.525.542 1.421.975 2.688.588 1.792 1.192 3.105 1.811 3.94.526.679 1.114 1.019 1.764 1.019.495 0 .975-.186 1.439-.556.341-.278.619-.804.836-1.576.093-.247.17-.448.232-.603a483.364 483.364 0 013.529-7.09c.247-.495.479-.742.696-.742.093 0 .186.108.279.324v.047zM109.576 3.169c.185 0 .356.062.51.186a.526.526 0 00.186.185c.309.247.959.386 1.95.417.557 0 .975.232 1.254.695.959 1.329 1.439 2.534 1.439 3.615.031.402.216.912.557 1.53.062.092.108.17.139.231 1.176 2.101 1.997 3.692 2.461 4.774.712 1.607 1.068 2.827 1.068 3.661-.031.185-.248.664-.65 1.437-.031.03-.047.062-.047.093a48.162 48.162 0 00-1.671 3.383c-.186.401-.356.772-.511 1.112-.124.278-.263.417-.418.417-.124 0-.371-.37-.743-1.112a38.058 38.058 0 01-1.114-2.364c-.185-.37-.34-.695-.464-.973a30.84 30.84 0 00-.604-1.483c-.712-1.823-1.346-3.151-1.903-3.986a1.215 1.215 0 01-.186-.927c.093-.772-.232-1.776-.975-3.012-.495-.958-.805-1.777-.928-2.456-.217-1.02-.743-2.101-1.579-3.244-.371-.588-.278-1.035.279-1.344.062-.031.17-.093.325-.186.743-.432 1.284-.649 1.625-.649zm48.844 16.314c0-.65.356-.974 1.067-.974h4.04c1.114-.03 1.949.464 2.507 1.483.65 1.082 1.346 1.623 2.089 1.623.309 0 .541-.124.696-.371.093-.124.124-.325.093-.603v-.278c.062-.37.093-.865.093-1.483 0-.123-.016-.401-.047-.834a46.919 46.919 0 01-.046-1.807c0-.402.046-.927.139-1.576.031-.124.078-.294.14-.51.092-.278.139-.587.139-.927 0-.402-.325-.602-.975-.602-1.207 0-1.934.324-2.182.973-.062.185-.155.433-.279.741a3.434 3.434 0 01-.139.371c-.309.68-.619 1.02-.929 1.02-.123 0-.355-.031-.696-.093a5.36 5.36 0 00-1.207-.139c-.526 0-1.284.062-2.275.185-.928.124-1.501.124-1.718 0-.309-.185-.464-.803-.464-1.853 0-.65.031-1.56.093-2.735.062-.988.093-1.76.093-2.317a9.73 9.73 0 00-.325-2.456c-.186-.742-.201-1.236-.047-1.483.186-.278.372-.448.557-.51.743-.247 1.935-.37 3.575-.37.465 0 1.037.061 1.718.185.31.061.557.108.743.139 1.671.247 2.848 1.22 3.528 2.92.341.864.913 1.297 1.718 1.297.588 0 .913-.402.975-1.205.093-.803.139-2.085.139-3.847 0-1.174-.572-1.76-1.717-1.76a22 22 0 00-1.579.092c-.619.03-1.114.046-1.486.046-2.445 0-4.224-.015-5.339-.046-.526 0-1.346-.062-2.46-.185-1.238-.093-2.167-.14-2.786-.14-.743.031-1.826.093-3.25.186l-.51.046c-.186.031-.48.047-.882.047-.619.061-1.115.123-1.486.185-.681.154-1.021.417-1.021.788 0 .185.17.386.51.602.527.31.96.464 1.3.464.774 0 1.285.417 1.532 1.251.588 1.854.882 3.46.882 4.82 0 .494-.03 1.22-.092 2.178a38.636 38.636 0 00-.14 2.966c0 .402.062.85.186 1.344.031.155.046.263.046.325 0 .154-.03.386-.092.695a2.528 2.528 0 00-.093.556c0 .154-.047.726-.14 1.715-.154 1.823-.232 3.074-.232 3.754 0 .185.031.54.093 1.066.062.432.093.772.093 1.02 0 .4-.077.972-.232 1.714-.062.402-.108.71-.139.927-.093.803-.202 1.313-.325 1.53-.217.494-.836.849-1.858 1.065-.092.031-.278.046-.557.046-.402 0-.711.062-.928.186-.372.216-.557.618-.557 1.205 0 .432.217.649.65.649.093 0 .248.015.464.046.433.031.944.046 1.532.046a22.1 22.1 0 001.207-.046c.65-.062 1.223-.093 1.718-.093.217 0 .789.078 1.718.232 1.114.154 1.841.232 2.182.232.402 0 .928-.016 1.578-.047.527-.03.991-.046 1.393-.046h.418c.743.031 1.207.015 1.393-.046l.232-.093c.402-.093.619-.355.65-.788 0-.525-.217-.911-.65-1.158-.526-.279-1.238-.495-2.136-.65-.804-.092-1.315-.246-1.532-.463-.186-.185-.278-.71-.278-1.575a3591.2 3591.2 0 01-.093-6.767v-2.085z"/></svg><svg viewBox="0 0 20 20" id="mail" xmlns="http://www.w3.org/2000/svg"><path d="M10 20h5v-2h-5c-4.34 0-8-3.66-8-8s3.66-8 8-8 8 3.66 8 8v1.43c0 .79-.71 1.57-1.5 1.57s-1.5-.78-1.5-1.57V10c0-2.76-2.24-5-5-5s-5 2.24-5 5 2.24 5 5 5c1.38 0 2.64-.56 3.54-1.47.65.89 1.77 1.47 2.96 1.47 1.97 0 3.5-1.6 3.5-3.57V10c0-5.52-4.48-10-10-10S0 4.48 0 10s4.48 10 10 10zm0-7c-1.66 0-3-1.34-3-3s1.34-3 3-3 3 1.34 3 3-1.34 3-3 3z"/></svg><svg viewBox="0 0 56 49" id="telegram" xmlns="http://www.w3.org/2000/svg"><path fill-rule="evenodd" clip-rule="evenodd" d="M47.486 45.787v-.005l.05-.121L56 3.163v-.135c0-1.06-.395-1.985-1.247-2.538-.748-.487-1.61-.52-2.213-.475a7.593 7.593 0 00-1.654.337 9.132 9.132 0 00-.677.247l-.037.014L2.985 19.05l-.014.006a3.813 3.813 0 00-.42.171c-.336.15-.658.329-.963.534-.607.416-1.76 1.394-1.566 2.946.16 1.287 1.05 2.102 1.65 2.527.356.247.737.455 1.138.618l.09.04.029.008.02.008 8.257 2.769c-.028.514.023 1.04.161 1.56l4.135 15.625a4.214 4.214 0 001.395 2.172 4.243 4.243 0 006.603-1.622l6.457-6.875 11.088 8.466.158.068c1.008.438 1.948.576 2.808.46a4.204 4.204 0 002.058-.885 4.898 4.898 0 001.383-1.785l.022-.047.009-.017.003-.009zM15.459 29.162a.84.84 0 01.367-.928l28-17.707s1.647-.998 1.588 0c0 0 .294.174-.59.992-.835.778-19.956 19.164-21.892 21.024a.78.78 0 00-.217.383l-3.121 11.86-4.135-15.627v.003z"/></svg><svg viewBox="0 0 20 20" id="vk" xmlns="http://www.w3.org/2000/svg"><path d="M13.073 0H6.937C1.333 0 0 1.333 0 6.927v6.136C0 18.666 1.323 20 6.927 20h6.136C18.666 20 20 18.677 20 13.073V6.937C20 1.333 18.677 0 13.073 0zm3.073 14.27h-1.459c-.552 0-.718-.447-1.708-1.437-.864-.833-1.229-.937-1.448-.937-.302 0-.385.083-.385.5v1.312c0 .355-.115.563-1.042.563a5.692 5.692 0 01-4.448-2.667 11.626 11.626 0 01-2.302-4.833c0-.219.083-.417.5-.417h1.458c.375 0 .51.167.657.552.708 2.084 1.916 3.896 2.406 3.896.188 0 .27-.083.27-.552V8.104c-.062-.979-.582-1.062-.582-1.416a.36.36 0 01.374-.334h2.292c.313 0 .417.156.417.531v2.896c0 .313.135.417.229.417.188 0 .333-.104.677-.448a11.999 11.999 0 001.792-2.98.628.628 0 01.635-.416h1.459c.437 0 .53.219.437.531a18.203 18.203 0 01-1.958 3.365c-.157.24-.22.365 0 .646.145.219.656.646 1 1.052.5.499.915 1.076 1.229 1.708.125.406-.084.614-.5.614z"/></svg></svg>